<svg width="21" height="35" viewBox="0 0 21 35" fill="none" xmlns="http://www.w3.org/2000/svg">
<path d="M19.4367 1.19216C19.9171 1.6727 20.187 2.32436 20.187 3.00385C20.187 3.68333 19.9171 4.33499 19.4367 4.81553L6.75237 17.4999L19.4367 30.1843C19.9035 30.6676 20.1618 31.3149 20.156 31.9867C20.1501 32.6586 19.8806 33.3013 19.4055 33.7764C18.9304 34.2516 18.2877 34.521 17.6158 34.5269C16.944 34.5327 16.2967 34.2744 15.8134 33.8077L1.31731 19.3116C0.836912 18.8311 0.567041 18.1794 0.567041 17.4999C0.567041 16.8204 0.836912 16.1688 1.31731 15.6882L15.8134 1.19216C16.2939 0.711765 16.9456 0.441895 17.6251 0.441895C18.3045 0.441895 18.9562 0.711765 19.4367 1.19216Z" fill="#D1D1D1"/>
</svg>
