<svg width="21" height="35" viewBox="0 0 21 35" fill="none" xmlns="http://www.w3.org/2000/svg">
<path d="M1.56325 1.19216C1.08286 1.6727 0.812988 2.32436 0.812988 3.00385C0.812988 3.68333 1.08286 4.33499 1.56325 4.81553L14.2476 17.4999L1.56325 30.1843C1.09647 30.6676 0.838187 31.3149 0.844026 31.9867C0.849864 32.6586 1.11936 33.3013 1.59447 33.7764C2.06958 34.2516 2.71228 34.521 3.38416 34.5269C4.05604 34.5327 4.70334 34.2744 5.18663 33.8077L19.6827 19.3116C20.1631 18.8311 20.433 18.1794 20.433 17.4999C20.433 16.8204 20.1631 16.1688 19.6827 15.6882L5.18663 1.19216C4.70609 0.711765 4.05442 0.441895 3.37494 0.441895C2.69546 0.441895 2.04379 0.711765 1.56325 1.19216Z" fill="#D1D1D1"/>
</svg>
